<svg width="43" height="43" viewBox="0 0 43 43" fill="none" xmlns="http://www.w3.org/2000/svg">
<path d="M32.25 21.5C32.2413 20.5574 31.8615 19.6562 31.1929 18.9917L23.5067 11.2875C23.171 10.9538 22.7169 10.7665 22.2435 10.7665C21.7702 10.7665 21.3161 10.9538 20.9804 11.2875C20.8125 11.454 20.6792 11.6522 20.5882 11.8705C20.4973 12.0889 20.4505 12.323 20.4505 12.5596C20.4505 12.7961 20.4973 13.0303 20.5882 13.2486C20.6792 13.4669 20.8125 13.6651 20.9804 13.8316L26.875 19.7083H8.95834C8.48316 19.7083 8.02744 19.8971 7.69144 20.2331C7.35544 20.5691 7.16667 21.0248 7.16667 21.5C7.16667 21.9752 7.35544 22.4309 7.69144 22.7669C8.02744 23.1029 8.48316 23.2916 8.95834 23.2916H26.875L20.9804 29.1862C20.643 29.5212 20.4526 29.9765 20.4509 30.452C20.4492 30.9274 20.6365 31.3841 20.9715 31.7214C21.3065 32.0588 21.7618 32.2493 22.2372 32.251C22.7127 32.2527 23.1693 32.0654 23.5067 31.7304L31.1929 24.0262C31.8659 23.3573 32.246 22.4488 32.25 21.5Z" fill="white"/>
</svg>
