<svg width="42" height="42" viewBox="0 0 42 42" fill="none" xmlns="http://www.w3.org/2000/svg">
<g clip-path="url(#clip0_24_2)">
<path d="M40.25 19.2499C39.7859 19.2499 39.3408 19.0655 39.0126 18.7373C38.6844 18.4092 38.5 17.964 38.5 17.4999C38.4963 13.788 37.0201 10.2292 34.3954 7.6045C31.7707 4.9798 28.2119 3.50361 24.5 3.49991C24.0359 3.49991 23.5908 3.31553 23.2626 2.98734C22.9344 2.65915 22.75 2.21403 22.75 1.74991C22.75 1.28578 22.9344 0.840657 23.2626 0.512469C23.5908 0.18428 24.0359 -9.44134e-05 24.5 -9.44134e-05C29.1397 0.00500088 33.588 1.85038 36.8687 5.13117C40.1495 8.41195 41.9949 12.8602 42 17.4999C42 17.964 41.8156 18.4092 41.4874 18.7373C41.1593 19.0655 40.7141 19.2499 40.25 19.2499ZM35 17.4999C35 14.7151 33.8938 12.0444 31.9246 10.0753C29.9555 8.10615 27.2848 6.99991 24.5 6.99991C24.0359 6.99991 23.5908 7.18428 23.2626 7.51247C22.9344 7.84066 22.75 8.28578 22.75 8.74991C22.75 9.21403 22.9344 9.65915 23.2626 9.98734C23.5908 10.3155 24.0359 10.4999 24.5 10.4999C26.3565 10.4999 28.137 11.2374 29.4497 12.5502C30.7625 13.8629 31.5 15.6434 31.5 17.4999C31.5 17.964 31.6844 18.4092 32.0126 18.7373C32.3408 19.0655 32.7859 19.2499 33.25 19.2499C33.7141 19.2499 34.1593 19.0655 34.4874 18.7373C34.8156 18.4092 35 17.964 35 17.4999ZM38.8203 38.7869L40.4128 36.9512C41.4264 35.9343 41.9955 34.5571 41.9955 33.1213C41.9955 31.6855 41.4264 30.3083 40.4128 29.2914C40.3585 29.2372 36.148 25.9979 36.148 25.9979C35.1375 25.036 33.7952 24.5004 32.4 24.5023C31.0049 24.5043 29.6641 25.0437 28.6563 26.0084L25.3208 28.8189C22.5981 27.6921 20.1248 26.0385 18.043 23.9531C15.9612 21.8677 14.3119 19.3915 13.1897 16.6669L15.9897 13.3419C16.9553 12.3342 17.4953 10.9932 17.4976 9.59761C17.4998 8.20203 16.9642 6.85925 16.002 5.84841C16.002 5.84841 12.7592 1.64316 12.705 1.58891C11.7065 0.583965 10.3528 0.0121941 8.93625 -0.00286854C7.5197 -0.0179312 6.1541 0.524924 5.1345 1.50841L3.122 3.25841C-8.7675 17.0519 16.835 42.4567 31.0835 41.9999C32.5223 42.0082 33.9482 41.7282 35.277 41.1764C36.6059 40.6245 37.8106 39.8121 38.8203 38.7869Z" fill="white"/>
</g>
<defs>
<clipPath id="clip0_24_2">
<rect width="42" height="42" fill="white"/>
</clipPath>
</defs>
</svg>
