<svg width="42" height="42" viewBox="0 0 42 42" fill="none" xmlns="http://www.w3.org/2000/svg">
<g clip-path="url(#clip0_24_4)">
<path d="M8.75 7H10.675C11.0812 5.02497 12.1558 3.25036 13.7178 1.97526C15.2798 0.700158 17.2336 0.00254542 19.25 0L22.75 0C24.7664 0.00254542 26.7202 0.700158 28.2822 1.97526C29.8442 3.25036 30.9188 5.02497 31.325 7H33.25C35.5698 7.00278 37.7938 7.92554 39.4341 9.56588C41.0745 11.2062 41.9972 13.4302 42 15.75V21H0V15.75C0.00277875 13.4302 0.925542 11.2062 2.56588 9.56588C4.20622 7.92554 6.43021 7.00278 8.75 7ZM27.678 7C27.3174 5.97991 26.6503 5.09616 25.7682 4.46965C24.8861 3.84315 23.832 3.50449 22.75 3.5H19.25C18.168 3.50449 17.1139 3.84315 16.2318 4.46965C15.3497 5.09616 14.6826 5.97991 14.322 7H27.678Z" fill="white"/>
<path d="M19.25 26.25C19.25 26.7141 19.4344 27.1592 19.7626 27.4874C20.0908 27.8156 20.5359 28 21 28C21.4641 28 21.9092 27.8156 22.2374 27.4874C22.5656 27.1592 22.75 26.7141 22.75 26.25V24.5H42V33.25C41.9972 35.5698 41.0745 37.7938 39.4341 39.4341C37.7938 41.0745 35.5698 41.9972 33.25 42H8.75C6.43021 41.9972 4.20622 41.0745 2.56588 39.4341C0.925542 37.7938 0.00277875 35.5698 0 33.25V24.5H19.25V26.25Z" fill="white"/>
</g>
<defs>
<clipPath id="clip0_24_4">
<rect width="42" height="42" fill="white" transform="matrix(-1 0 0 1 42 0)"/>
</clipPath>
</defs>
</svg>
