<svg width="42" height="42" viewBox="0 0 42 42" fill="none" xmlns="http://www.w3.org/2000/svg">
<g clip-path="url(#clip0_25_26)">
<path d="M21 26.2371C18.1005 26.2371 15.75 28.5876 15.75 31.4871V41.9871H26.25V31.4871C26.25 28.5876 23.8995 26.2371 21 26.2371Z" fill="white"/>
<path d="M29.75 31.487V41.987H36.75C39.6495 41.987 42 39.6365 42 36.737V20.7753C42.0004 19.8662 41.6471 18.9925 41.0147 18.3393L26.1433 2.262C23.5193 -0.577097 19.0906 -0.751413 16.2515 1.8726C16.1166 1.99729 15.9867 2.12715 15.8621 2.262L1.01678 18.3341C0.365285 18.99 -0.00024597 19.8771 1.24181e-07 20.8016V36.737C1.24181e-07 39.6365 2.35052 41.987 5.25 41.987H12.25V31.487C12.2827 26.7151 16.1355 22.8183 20.7872 22.7061C25.5946 22.5901 29.7134 26.5533 29.75 31.487Z" fill="white"/>
<path d="M21 26.2371C18.1005 26.2371 15.75 28.5876 15.75 31.4871V41.9871H26.25V31.4871C26.25 28.5876 23.8995 26.2371 21 26.2371Z" fill="white"/>
</g>
<defs>
<clipPath id="clip0_25_26">
<rect width="42" height="42" fill="white"/>
</clipPath>
</defs>
</svg>
