<svg width="42" height="42" viewBox="0 0 42 42" fill="none" xmlns="http://www.w3.org/2000/svg">
<g clip-path="url(#clip0_24_7)">
<path d="M28.0752 24.5H13.9247C11.6249 24.5028 9.42007 25.4176 7.79384 27.0438C6.16761 28.6701 5.25278 30.8749 5.25 33.1748V42H36.75V33.1748C36.7472 30.8749 35.8324 28.6701 34.2062 27.0438C32.5799 25.4176 30.3751 24.5028 28.0752 24.5Z" fill="white"/>
<path d="M21 21C26.799 21 31.5 16.299 31.5 10.5C31.5 4.70101 26.799 0 21 0C15.201 0 10.5 4.70101 10.5 10.5C10.5 16.299 15.201 21 21 21Z" fill="white"/>
</g>
<defs>
<clipPath id="clip0_24_7">
<rect width="42" height="42" fill="white"/>
</clipPath>
</defs>
</svg>
